<?xml version="1.0" encoding="utf-8"?>
<!-- Generator: Adobe Illustrator 23.0.3, SVG Export Plug-In . SVG Version: 6.00 Build 0)  -->
<svg version="1.1" id="Layer_1" xmlns="http://www.w3.org/2000/svg" xmlns:xlink="http://www.w3.org/1999/xlink" x="0px" y="0px"
	 viewBox="0 0 512 512" style="enable-background:new 0 0 512 512;" xml:space="preserve">
<style type="text/css">
	.st0{fill:#C44900;}
</style>
<g>
	<g>
		<g>
			<path class="st0" d="M458.7,197.9h-83.8L343.2,79.8c12.9-7.3,21.7-21.2,21.7-37.1c0-23.5-19.1-42.7-42.7-42.7
				s-42.7,19.1-42.7,42.7s19.1,42.7,42.7,42.7c0.1,0,0.3,0,0.4,0l30.2,112.6H159.2l30.2-112.6c0.1,0,0.3,0,0.4,0
				c23.5,0,42.7-19.1,42.7-42.7S213.3,0,189.8,0c-23.5,0-42.7,19.1-42.7,42.7c0,15.9,8.7,29.8,21.7,37.1l-31.7,118.1H53.3
				c-5.9,0-10.7,4.8-10.7,10.7v42.7c0,5.9,4.8,10.7,10.7,10.7h13.6l7.8,104.3c2.8,37.9,31.7,66.4,67.2,66.4h228.3
				c35.5,0,64.3-28.5,67.2-66.4l7.8-104.3h13.6c5.9,0,10.7-4.8,10.7-10.7v-42.7C469.3,202.7,464.6,197.9,458.7,197.9z M332.5,39.9
				c-1.5-5.7-7.4-9.1-13.1-7.5c-5.7,1.5-9.1,7.4-7.5,13.1l4.8,17.8c-9.1-2.4-15.8-10.7-15.8-20.6c0-11.8,9.6-21.3,21.3-21.3
				c11.8,0,21.3,9.6,21.3,21.3c0,5.9-2.4,11.2-6.2,15.1L332.5,39.9z M168.5,42.7c0-11.8,9.6-21.3,21.3-21.3s21.3,9.6,21.3,21.3
				c0,9.8-6.7,18.1-15.8,20.6l4.8-17.8c1.5-5.7-1.9-11.5-7.5-13.1c-5.7-1.5-11.5,1.9-13.1,7.5l-4.8,17.8
				C170.9,53.9,168.5,48.5,168.5,42.7z M416,364.6c-2,26.6-21.7,46.7-45.9,46.7H141.9c-24.2,0-43.9-20.1-45.9-46.7l-7.7-102.7h335.4
				L416,364.6z M435.2,240.6H76.8H64v-21.3h81.3c0,0,0,0,0.1,0c0,0,0.1,0,0.1,0h221.1c0,0,0.1,0,0.1,0c0,0,0,0,0.1,0H448v21.3H435.2
				z"/>
			<path class="st0" d="M149.3,389.9c5.9,0,10.7-4.8,10.7-10.7v-85.3c0-5.9-4.8-10.7-10.7-10.7c-5.9,0-10.7,4.8-10.7,10.7v85.3
				C138.7,385.1,143.4,389.9,149.3,389.9z"/>
			<path class="st0" d="M309.3,389.9c5.9,0,10.7-4.8,10.7-10.7v-85.3c0-5.9-4.8-10.7-10.7-10.7c-5.9,0-10.7,4.8-10.7,10.7v85.3
				C298.7,385.1,303.4,389.9,309.3,389.9z"/>
			<path class="st0" d="M363,309.9c5.9,0,10.7-4.8,10.7-10.7v-5.3c0-5.9-4.8-10.7-10.7-10.7c-5.9,0-10.7,4.8-10.7,10.7v5.3
				C352.3,305.1,357.1,309.9,363,309.9z"/>
			<path class="st0" d="M363,389.9c5.9,0,10.7-4.8,10.7-10.7v-42.7c0-5.9-4.8-10.7-10.7-10.7c-5.9,0-10.7,4.8-10.7,10.7v42.7
				C352.3,385.1,357.1,389.9,363,389.9z"/>
			<path class="st0" d="M362.7,490.7H149.3c-5.9,0-10.7,4.8-10.7,10.7c0,5.9,4.8,10.7,10.7,10.7h213.3c5.9,0,10.7-4.8,10.7-10.7
				C373.3,495.4,368.6,490.7,362.7,490.7z"/>
			<path class="st0" d="M256,389.9c5.9,0,10.7-4.8,10.7-10.7v-6.6c0-5.9-4.8-10.7-10.7-10.7c-5.9,0-10.7,4.8-10.7,10.7v6.6
				C245.3,385.1,250.1,389.9,256,389.9z"/>
			<path class="st0" d="M202.4,310.9c5.9,0,10.7-4.8,10.7-10.7v-6.3c0-5.9-4.8-10.7-10.7-10.7c-5.9,0-10.7,4.8-10.7,10.7v6.3
				C191.8,306.1,196.5,310.9,202.4,310.9z"/>
			<path class="st0" d="M256,347.2c5.9,0,10.7-4.8,10.7-10.7v-42.7c0-5.9-4.8-10.7-10.7-10.7c-5.9,0-10.7,4.8-10.7,10.7v42.7
				C245.3,342.5,250.1,347.2,256,347.2z"/>
			<path class="st0" d="M202.4,389.9c5.9,0,10.7-4.8,10.7-10.7v-42.7c0-5.9-4.8-10.7-10.7-10.7c-5.9,0-10.7,4.8-10.7,10.7v42.7
				C191.8,385.1,196.5,389.9,202.4,389.9z"/>
		</g>
	</g>
</g>
</svg>
