<?xml version="1.0" encoding="utf-8"?>
<!-- Generator: Adobe Illustrator 23.0.3, SVG Export Plug-In . SVG Version: 6.00 Build 0)  -->
<svg version="1.1" id="Calque_1" xmlns="http://www.w3.org/2000/svg" xmlns:xlink="http://www.w3.org/1999/xlink" x="0px" y="0px"
	 viewBox="0 0 512 512" style="enable-background:new 0 0 512 512;" xml:space="preserve">
<style type="text/css">
	.st0{fill:#C44900;}
</style>
<path class="st0" d="M177.8,206.9c3.9-3.9,3.9-10.2,0-14.1c-3.9-3.9-10.2-3.9-14.1,0c-3.9,3.9-3.9,10.2,0,14.1
	C167.6,210.8,173.9,210.8,177.8,206.9z"/>
<path class="st0" d="M276.8,221.1c11.7-11.7,11.7-30.7,0-42.4c-11.7-11.7-30.7-11.7-42.4,0c-11.7,11.7-11.7,30.7,0,42.4
	C246.1,232.8,265.1,232.8,276.8,221.1z M248.5,192.8c3.9-3.9,10.2-3.9,14.1,0c3.9,3.9,3.9,10.2,0,14.1c-3.9,3.9-10.2,3.9-14.1,0
	C244.6,203,244.6,196.7,248.5,192.8z"/>
<path class="st0" d="M234.4,291.8c-11.7,11.7-11.7,30.7,0,42.4c11.7,11.7,30.7,11.7,42.4,0c11.7-11.7,11.7-30.7,0-42.4
	C265.1,280,246.1,280,234.4,291.8z M262.7,320.1c-3.9,3.9-10.2,3.9-14.1,0c-3.9-3.9-3.9-10.2,0-14.1c3.9-3.9,10.2-3.9,14.1,0
	C266.6,309.8,266.6,316.2,262.7,320.1z"/>
<path class="st0" d="M175.1,272.5c1.1,5.4,6.4,8.9,11.8,7.8l141.4-28.3c5.4-1.1,8.9-6.4,7.8-11.8c-1.1-5.4-6.4-8.9-11.8-7.8
	l-141.4,28.3C177.5,261.8,174,267.1,175.1,272.5z"/>
<path class="st0" d="M304,56.6c-2.7,0-5.2,1.1-7.1,2.9l-105,105c-3.9,3.9-3.9,10.2,0,14.1s10.2,3.9,14.1,0L304,80.7L431.3,208
	L206.8,432.5L79.5,305.2l70-70c3.9-3.9,3.9-10.2,0-14.1c-3.9-3.9-10.2-3.9-14.1,0l-77.1,77.1c-3.9,3.9-3.9,10.2,0,14.1l141.4,141.4
	c3.9,3.9,10.2,3.9,14.1,0l238.6-238.6c3.9-3.9,3.9-10.2,0-14.1L311.1,59.5C309.2,57.6,306.7,56.6,304,56.6z"/>
<path class="st0" d="M494.9,2.9L452,45.9c-25-18.9-59.6-19.2-84.5-0.8L332.4,8.9c0,0-0.1-0.1-0.1-0.1c-11.7-11.7-30.6-11.8-42.4,0
	L8.8,291.1c-11.7,11.7-11.7,30.7,0,42.4l39.7,39.7c-8.9,25.4-2.5,54.1,16.9,73.5c19.4,19.4,48.1,25.8,73.5,16.9l39.7,39.7
	c11.7,11.7,30.7,11.7,42.4,0l282.3-281.1c11.7-11.7,11.7-30.7,0-42.4c0,0-0.1-0.1-0.1-0.1l-36.2-35.1c18.4-24.7,18.3-59.3-0.8-84.5
	l42.9-42.9c3.9-3.9,3.9-10.2,0-14.1S498.8-1,494.9,2.9z M446.1,138c-1.9,1.9-2.9,4.5-2.9,7.1c0,2.7,1.1,5.2,3,7.1l42.9,41.7
	c3.9,3.9,3.8,10.2,0,14.1L206.8,489.1c-3.9,3.9-10.2,3.9-14.1,0l-44.4-44.3c-1.9-1.9-4.5-2.9-7.1-2.9c-1.4,0-2.9,0.3-4.2,0.9
	c-19.2,9-42.3,4.9-57.5-10.2c-15.1-15.1-19.3-38.2-10.2-57.5c1.8-3.8,1-8.3-2-11.3l-44.3-44.3c-3.9-3.9-3.9-10.2,0-14.2L304,22.9
	c3.9-3.9,10.2-3.9,14.1,0l41.6,42.9c3.7,3.8,10.1,4.2,14.2,0.1c17.1-17.1,43.9-19,63.7-5.7L423,74.9c-11.2-5.3-24.9-3.4-34.1,5.9
	c-11.7,11.7-11.7,30.7,0,42.4c11.7,11.7,30.7,11.7,42.4,0c9.4-9.4,11.1-23.3,5.9-34.2l14.7-14.7C465,93.8,463.5,120.7,446.1,138z
	 M417.1,94.9c3.9,3.9,3.9,10.2,0,14.1c-3.9,3.9-10.2,3.9-14.1,0c-3.9-3.9-3.9-10.2,0-14.1C406.9,91,413.2,90.9,417.1,94.9z"/>
</svg>
