<?xml version="1.0" encoding="utf-8"?>
<!-- Generator: Adobe Illustrator 23.0.3, SVG Export Plug-In . SVG Version: 6.00 Build 0)  -->
<svg version="1.1" id="Capa_1" xmlns="http://www.w3.org/2000/svg" xmlns:xlink="http://www.w3.org/1999/xlink" x="0px" y="0px"
	 viewBox="0 0 512 512" style="enable-background:new 0 0 512 512;" xml:space="preserve">
<style type="text/css">
	.st0{fill:#C44900;}
</style>
<path class="st0" d="M10,250h86v252c0,5.5,4.5,10,10,10h105c5.5,0,10-4.5,10-10s-4.5-10-10-10h-95V130c0-5.5-4.5-10-10-10
	s-10,4.5-10,10v100H21.7C46.6,70.5,44.5,44.5,90.3,35.3l72.4-14.5l86.2,86.2c3.9,3.9,10.2,3.9,14.1,0l86.2-86.2l72.4,14.5
	c45.9,9.2,43.8,35.3,68.6,194.7H416V130c0-5.5-4.5-10-10-10s-10,4.5-10,10v362h-95c-5.5,0-10,4.5-10,10s4.5,10,10,10h105
	c5.5,0,10-4.5,10-10V250h86c6.1,0,10.8-5.5,9.9-11.6c-15.4-97.3-20.5-149-33.2-180.2c-10.1-24.7-25.4-37-53.1-42.5L348,0.2
	c-3.3-0.7-6.7,0.4-9,2.7L256,85.9L173.1,2.9c-2.4-2.4-5.7-3.4-9-2.7L86.4,15.7c-27.6,5.5-43,17.8-53.1,42.5
	C20.7,89.4,15.6,141,0.1,238.4c-0.5,2.9,0.4,5.8,2.3,8.1C4.3,248.7,7.1,250,10,250L10,250z"/>
<path class="st0" d="M346,200c5.5,0,10-4.5,10-10s-4.5-10-10-10h-30c-5.5,0-10,4.5-10,10s4.5,10,10,10H346z"/>
<circle class="st0" cx="256" cy="502" r="10"/>
</svg>
